<?xml version="1.0" standalone="no"?>
<!DOCTYPE svg PUBLIC "-//W3C//DTD SVG 20010904//EN"
 "http://www.w3.org/TR/2001/REC-SVG-20010904/DTD/svg10.dtd">
<svg version="1.0" xmlns="http://www.w3.org/2000/svg"
 width="158.000000pt" height="158.000000pt" viewBox="0 0 158.000000 158.000000"
 preserveAspectRatio="xMidYMid meet">
<metadata>
Created by potrace 1.14, written by Peter Selinger 2001-2017
</metadata>
<g transform="translate(0.000000,158.000000) scale(0.100000,-0.100000)"
fill="#000000" stroke="none">
<path d="M13 1134 c-18 -8 -19 -459 -1 -470 15 -9 266 -8 310 1 109 24 162 87
172 207 10 112 -31 200 -111 238 -43 21 -65 24 -203 27 -85 1 -161 0 -167 -3z
m273 -99 c17 -3 42 -17 55 -31 21 -22 24 -35 24 -98 0 -120 -25 -144 -157
-153 -76 -5 -78 -4 -79 19 -5 138 -2 269 6 271 13 5 111 0 151 -8z"/>
<path d="M733 1128 c-74 -16 -117 -71 -140 -178 -1 -8 -18 -72 -37 -142 -18
-69 -30 -131 -26 -138 4 -6 29 -12 56 -12 55 0 69 13 79 73 4 21 12 39 18 40
108 6 139 10 174 24 71 28 86 54 131 233 l29 112 -121 -1 c-66 -1 -140 -5
-163 -11z m119 -108 c-11 -100 -48 -150 -111 -150 -28 0 -39 4 -36 13 2 6 11
38 20 70 17 64 50 93 102 92 24 0 28 -4 25 -25z"/>
<path d="M1102 1128 c-7 -7 -12 -21 -12 -32 0 -42 15 -49 97 -51 l78 -1 5
-186 c3 -103 8 -189 12 -193 8 -9 94 -9 108 0 6 4 10 75 10 193 l0 188 73 -2
c84 -1 107 8 107 41 0 57 7 55 -239 55 -163 0 -230 -3 -239 -12z"/>
<path d="M1017 1024 c-39 -148 -50 -176 -76 -202 -24 -24 -28 -34 -27 -89 1
-34 5 -65 9 -69 10 -11 97 -8 109 4 4 4 7 102 6 217 l-3 208 -18 -69z"/>
<path d="M12 508 l3 -53 43 0 c44 1 56 20 12 20 -22 1 -25 5 -28 43 -2 29 -8
42 -18 42 -12 0 -14 -11 -12 -52z"/>
<path d="M210 516 c0 -43 9 -58 37 -62 7 -1 15 2 19 7 3 5 -1 9 -9 9 -21 0
-30 29 -12 36 19 8 19 24 0 24 -8 0 -14 5 -12 11 1 6 -4 14 -10 16 -9 3 -13
-9 -13 -41z"/>
<path d="M273 545 c-3 -9 -3 -18 0 -21 9 -9 27 6 27 22 0 19 -19 18 -27 -1z"/>
<path d="M907 553 c-3 -5 -3 -21 -2 -38 2 -16 3 -35 4 -41 1 -15 29 -26 43
-18 7 4 4 10 -6 16 -21 12 -20 27 2 44 16 13 16 13 0 14 -10 0 -18 7 -18 15 0
16 -16 21 -23 8z"/>
<path d="M1258 519 c-4 -46 12 -72 38 -62 15 5 15 7 0 15 -20 11 -21 38 -1 38
8 0 15 5 15 10 0 6 -7 10 -15 10 -8 0 -15 7 -15 15 0 34 -18 12 -22 -26z"/>
<path d="M1324 510 c1 -55 18 -72 26 -26 7 42 28 44 32 4 4 -39 22 -40 26 -3
4 33 -15 57 -39 50 -13 -4 -19 -1 -19 9 0 9 -6 16 -13 16 -9 0 -13 -15 -13
-50z"/>
<path d="M126 524 c-9 -8 -16 -22 -16 -29 0 -20 44 -47 64 -39 23 9 20 27 -3
19 -11 -3 -22 -1 -26 5 -4 6 6 10 24 10 17 0 31 4 31 9 0 14 -30 41 -45 41 -7
0 -21 -7 -29 -16z m44 -14 c0 -5 -4 -10 -9 -10 -6 0 -13 5 -16 10 -3 6 1 10 9
10 9 0 16 -4 16 -10z"/>
<path d="M320 525 c-15 -18 -5 -35 20 -35 10 0 22 -5 26 -11 4 -8 -4 -9 -27
-4 -29 7 -32 6 -21 -8 7 -8 21 -14 30 -12 9 2 23 4 30 4 23 2 12 37 -15 48
l-28 12 28 -6 c32 -6 37 12 5 21 -32 8 -34 8 -48 -9z"/>
<path d="M466 524 c-9 -8 -16 -21 -16 -28 0 -20 27 -39 45 -32 8 3 15 0 15 -5
0 -7 -11 -9 -25 -6 -16 3 -24 0 -22 -7 5 -16 45 -20 62 -6 13 10 17 89 5 91
-3 0 -15 2 -27 5 -12 2 -29 -3 -37 -12z m44 -25 c0 -24 -23 -21 -28 4 -2 10 3
17 12 17 10 0 16 -9 16 -21z"/>
<path d="M556 530 c-2 -3 -3 -21 -2 -40 2 -42 19 -46 26 -6 3 17 14 32 25 37
11 4 18 8 15 10 -12 4 -62 4 -64 -1z"/>
<path d="M636 524 c-33 -33 -10 -71 39 -65 21 3 35 18 35 38 0 16 -28 43 -45
43 -7 0 -21 -7 -29 -16z m42 -26 c-5 -32 -28 -35 -28 -4 0 17 5 26 16 26 10 0
14 -7 12 -22z"/>
<path d="M718 535 c-9 -9 11 -61 28 -76 12 -10 16 -8 21 9 6 25 23 30 23 6 0
-27 33 -11 42 21 10 37 -8 59 -20 24 l-9 -24 -7 23 c-9 28 -26 28 -33 1 l-6
-22 -16 22 c-9 12 -20 19 -23 16z"/>
<path d="M982 528 c-17 -17 -15 -53 5 -69 20 -17 14 -17 47 4 21 14 30 16 42
7 7 -7 21 -10 29 -6 8 3 15 0 15 -5 0 -7 -11 -9 -25 -6 -16 3 -24 0 -22 -7 5
-15 45 -20 61 -7 21 18 16 90 -6 97 -27 8 -54 -4 -66 -29 -11 -22 -11 -22 -11
-1 -1 14 -9 24 -23 28 -31 8 -32 8 -46 -6z m45 -24 c8 -21 -13 -42 -28 -27
-13 13 -5 43 11 43 6 0 13 -7 17 -16z m93 -4 c0 -11 -7 -20 -15 -20 -15 0 -21
21 -8 33 12 13 23 7 23 -13z"/>
<path d="M1178 529 c-23 -13 -23 -56 0 -68 21 -11 62 -4 62 11 0 6 -11 7 -25
4 -14 -4 -25 -2 -25 4 0 5 11 10 24 10 32 0 40 14 20 34 -18 18 -32 20 -56 5z
m37 -19 c-3 -5 -10 -10 -16 -10 -5 0 -9 5 -9 10 0 6 7 10 16 10 8 0 12 -4 9
-10z"/>
<path d="M1436 524 c-34 -34 -2 -84 44 -69 29 9 24 26 -5 19 -15 -4 -25 -2
-25 5 0 6 13 11 29 11 46 0 28 44 -21 49 -4 1 -14 -6 -22 -15z m39 -14 c3 -5
2 -10 -4 -10 -5 0 -13 5 -16 10 -3 6 -2 10 4 10 5 0 13 -4 16 -10z"/>
<path d="M1520 493 c0 -32 3 -41 14 -37 7 3 12 16 10 31 -2 18 3 27 17 30 30
8 22 22 -11 20 -28 -2 -30 -4 -30 -44z"/>
</g>
</svg>
