<svg width="16" height="16" viewBox="0 0 16 16" fill="none" xmlns="http://www.w3.org/2000/svg">
<path d="M15.9077 3.34289C15.8161 3.21162 15.6687 3.13049 15.5086 3.12365L5.58366 2.69584C5.29889 2.68338 5.06093 2.90323 5.04875 3.18667C5.03665 3.47 5.25614 3.7094 5.53955 3.72157L14.7926 4.12045L12.9732 9.79691H4.87696L3.41425 1.83256C3.38209 1.658 3.26225 1.51238 3.09697 1.44754L0.701302 0.506377C0.437269 0.403005 0.139327 0.532694 0.0356332 0.796405C-0.0678819 1.06026 0.0617715 1.35838 0.325661 1.46207L2.45579 2.29889L3.94432 10.403C3.98918 10.6467 4.20151 10.8236 4.44933 10.8236H4.69624L4.13241 12.3898C4.08522 12.521 4.10466 12.6667 4.18497 12.7806C4.26518 12.8946 4.39562 12.9624 4.53487 12.9624H4.93034C4.68529 13.2352 4.53487 13.5943 4.53487 13.9892C4.53487 14.8384 5.22589 15.5293 6.07495 15.5293C6.92402 15.5293 7.61504 14.8384 7.61504 13.9892C7.61504 13.5943 7.46462 13.2352 7.2196 12.9624H10.5774C10.3322 13.2352 10.1818 13.5943 10.1818 13.9892C10.1818 14.8384 10.8727 15.5293 11.7219 15.5293C12.5712 15.5293 13.262 14.8384 13.262 13.9892C13.262 13.5943 13.1116 13.2352 12.8666 12.9624H13.3476C13.5839 12.9624 13.7754 12.7709 13.7754 12.5347C13.7754 12.2984 13.5839 12.1069 13.3476 12.1069H5.14357L5.60554 10.8235H13.3475C13.5708 10.8235 13.7683 10.6792 13.8363 10.4668L15.9753 3.79308C16.0245 3.64076 15.9993 3.47423 15.9077 3.34289ZM6.07499 14.6738C5.69749 14.6738 5.39049 14.3669 5.39049 13.9894C5.39049 13.6119 5.69749 13.3049 6.07499 13.3049C6.45249 13.3049 6.75945 13.6119 6.75945 13.9894C6.75945 14.3669 6.45249 14.6738 6.07499 14.6738ZM11.7219 14.6738C11.3444 14.6738 11.0374 14.3669 11.0374 13.9894C11.0374 13.6119 11.3444 13.3049 11.7219 13.3049C12.0994 13.3049 12.4064 13.6119 12.4064 13.9894C12.4064 14.3669 12.0994 14.6738 11.7219 14.6738Z" fill="#E74E13"/>
</svg>
