<svg width="16" height="16" viewBox="0 0 16 16" fill="#8C3213" xmlns="http://www.w3.org/2000/svg">
<path d="M12.1978 14.5454L10.0044 10.6764C9.98764 10.6514 9.97622 10.6233 9.97083 10.5938C9.96544 10.5643 9.9662 10.534 9.97307 
10.5047C9.97993 10.4755 9.99275 10.448 10.0107 10.424C10.0287 10.3999 10.0514 10.3799 10.0775 10.365C10.1036 10.3502 10.1325 
10.3409 10.1623 10.3377C10.1922 10.3345 10.2224 10.3375 10.251 10.3465C10.2796 10.3555 10.3061 10.3704 10.3287 10.3901C10.3514 
10.4098 10.3697 10.434 10.3826 10.4611L12.576 14.3302L12.1978 14.5454Z" />
<path d="M7.16819 5.45455C7.12978 5.45414 7.09215 5.44373 7.05899 5.42434C7.02583 5.40496 6.9983 5.37727 6.9791 5.34401L4.78564 
1.47783L5.16383 1.25964L7.35728 5.12873C7.38461 5.17821 7.39139 5.23645 7.37615 5.29088C7.36091 5.34531 7.32487 5.39156 7.27582 
5.41964C7.24326 5.43974 7.20635 5.45172 7.16819 5.45455Z"/>
<path d="M10.0537 15.1971C9.73158 15.2026 9.41 15.1674 9.09666 15.0924C5.96938 14.2284 1.86175 6.98182 2.72575 3.85745C3.119 
2.75041 3.87312 1.80777 4.86684 1.18109C5.05884 1.06764 5.25375 0.965818 5.44865 0.872727C5.62753 0.791287 5.83044 0.779869 
6.01733 0.840727C6.20421 0.901586 6.36149 1.0303 6.45811 1.20145L8.10175 4.11054C8.15631 4.20584 8.19021 4.31156 8.20124 
4.42082C8.21227 4.53009 8.20017 4.64044 8.16575 4.74473C8.13067 4.84924 8.0743 4.94534 8.0002 5.02696C7.92609 5.10858 7.83586 
5.17394 7.7352 5.21891C7.5752 5.28873 7.41811 5.36145 7.26684 5.44C6.60647 5.77164 6.22829 6.07127 6.14102 6.33309C5.94029 6.95563 
6.17884 8.00873 6.74902 9.01527C7.3192 10.0218 8.0872 10.7607 8.73011 10.8975C8.9192 10.9411 9.31193 10.8975 10.0741 10.3942C10.2196 
10.304 10.365 10.2051 10.5076 10.1033C10.5971 10.0398 10.699 9.99573 10.8067 9.97403C10.9143 9.95234 11.0253 9.95345 11.1325 
9.97729C11.2397 10.0011 11.3407 10.0472 11.4289 10.1125C11.5172 10.1778 11.5908 10.2609 11.645 10.3564L13.2916 13.2655C13.3899 
13.4365 13.4203 13.6383 13.3766 13.8308C13.333 14.0232 13.2185 14.1921 13.0559 14.304C12.8785 14.4204 12.6894 14.5367 12.4916 
14.6444C11.7355 15.0227 10.8991 15.2123 10.0537 15.1971ZM5.77156 1.23345C5.72331 1.23435 5.67576 1.24525 5.63193 1.26545C5.45156 
1.34982 5.26829 1.44873 5.08793 1.55636C4.19247 2.12583 3.50952 2.9744 3.14465 3.97091C2.77811 5.30036 3.42102 7.712 4.78247 
10.112C6.14393 12.512 7.88356 14.304 9.21302 14.6735C10.2543 14.8733 11.3324 14.7261 12.2821 14.2545C12.4683 14.1527 12.6457 
14.0451 12.8116 13.9345C12.8828 13.8844 12.9328 13.8095 12.9516 13.7245C12.9705 13.6394 12.9568 13.5504 12.9134 13.4749L11.2668 
10.5658C11.2427 10.5235 11.2101 10.4867 11.1711 10.4577C11.132 10.4286 11.0874 10.408 11.0399 10.3971C10.9901 10.3856 10.9384 
10.3849 10.8882 10.3949C10.8381 10.4049 10.7906 10.4255 10.749 10.4553C10.6007 10.56 10.4581 10.6618 10.301 10.7462C9.56211 
11.2233 9.02975 11.4007 8.62538 11.3105C7.85447 11.136 7.00793 10.3535 6.36211 9.216C5.85884 8.34327 5.42829 7.07491 5.7192 
6.18473C5.84429 5.79782 6.27193 5.43127 7.06029 5.02109C7.21738 4.93963 7.3832 4.864 7.54902 4.79127C7.59436 4.77117 7.63507 
4.74194 7.66861 4.7054C7.70214 4.66886 7.72778 4.6258 7.74393 4.57891C7.76002 4.53113 7.76574 4.48048 7.76073 4.43032C7.75571 
4.38016 7.74007 4.33164 7.71484 4.288L6.06829 1.37891C6.03419 1.33276 5.98933 1.29566 5.93762 1.27081C5.8859 1.24597 5.8289 
1.23414 5.77156 1.23636V1.23345Z" />
</svg>
