<svg height="512" viewBox="0 0 32 32" width="512" xmlns="http://www.w3.org/2000/svg" fill="#8C3213">
<g><path d="m27.492 17.5a.5.5 0 0 0 -.021-.12.454.454 0 0 0 -.014-.082l-3.832-8.622 2.184.335a.487.487 0 0 
0 .076.006.5.5 0 0 0 .075-.995l-9.46-1.451v-1.571a.5.5 0 0 0 -1 0v1.418l-9.309-1.429a.5.5 0 0 0 -.151.989l2.476.379-3.973 8.943a.454.454 0 0 0 
-.014.082.361.361 0 0 0 0 .24.549.549 0 0 0 .014.081 4.812 4.812 0 0 0 4.457 2.797 4.812 4.812 0 0 0 4.458-2.8.549.549 0 0 0 .014-.081.361.361 0 0 0 0-.24.454.454 0 0 0 
-.014-.082l-3.9-8.78 5.945.912v19.071h-5a.5.5 0 0 0 0 1h11a.5.5 0 0 0 0-1h-5v-18.918l5.954.914-3.911 8.8a.454.454 0 0 0 -.014.082.361.361 0 0 0 0 .24.549.549 0 0 0 .014.081 
4.949 4.949 0 0 0 8.916 0 .549.549 0 0 0 .014-.081.494.494 0 0 0 .016-.118zm-18.492 0a3.9 3.9 0 0 1 -3.131-1.5h6.262a3.9 3.9 0 0 1 -3.131 1.5zm-3.23-2.5 3.23-7.269 3.23 
7.269zm17.23-5.269 3.23 7.269h-6.46zm0 9.769a3.9 3.9 0 0 1 -3.131-1.5h6.262a3.9 3.9 0 0 1 -3.131 1.5z"/></g>
</svg>