<?xml version="1.0" encoding="utf-8"?>

<!-- Uploaded to: SVG Repo, www.svgrepo.com, Generator: SVG Repo Mixer Tools -->
<svg version="1.1" id="Icons" xmlns="http://www.w3.org/2000/svg" xmlns:xlink="http://www.w3.org/1999/xlink" 
	 viewBox="0 0 32 32" xml:space="preserve">
<style type="text/css">
	.st0{fill:none;stroke:#000000;stroke-width:2;stroke-linecap:round;stroke-linejoin:round;stroke-miterlimit:10;}
</style>
<path class="st0" d="M26.4,8.3c-0.2-1.1,0.1-2.2,0.5-3.3C27,4.9,27,4.7,27,4.5C27,3.7,26.3,3,25.5,3c-0.2,0-0.4,0-0.5,0.1
	c-1,0.4-2.1,0.6-3.1,0.4c-4.2-0.7-7.5-0.7-11.7,0C9.1,3.7,8,3.5,7,3.1C6.9,3,6.7,3,6.5,3C5.7,3,5,3.7,5,4.5C5,4.7,5,4.9,5.1,5
	c0.4,1.1,0.6,2.2,0.5,3.3C4.8,14,4.8,18,5.6,23.7c0.2,1.1-0.1,2.2-0.5,3.3C5,27.1,5,27.3,5,27.5C5,28.3,5.7,29,6.5,29
	c0.2,0,0.4,0,0.5-0.1c1-0.4,2.1-0.6,3.1-0.4c4.2,0.7,7.5,0.7,11.7,0c1.1-0.2,2.1,0.1,3.1,0.4c0.2,0.1,0.3,0.1,0.5,0.1
	c0.8,0,1.5-0.7,1.5-1.5c0-0.2,0-0.4-0.1-0.5c-0.4-1.1-0.6-2.2-0.5-3.3C27.2,18,27.2,14,26.4,8.3z"/>
<path class="st0" d="M16,19L16,19c-3.3,0-6-2.7-6-6v0h0C13.3,13,16,15.7,16,19L16,19z"/>
<path class="st0" d="M16,19L16,19c3.3,0,6-2.7,6-6v0h0C18.7,13,16,15.7,16,19L16,19z"/>
<path class="st0" d="M16,16.2L16,16.2c2.3-2.3,2.3-6.1,0-8.5l0,0l0,0C13.7,10.1,13.7,13.9,16,16.2L16,16.2z"/>
<path class="st0" d="M16,24L16,24c-3.3,0-6-2.7-6-6v0h0C13.3,18,16,20.7,16,24L16,24z"/>
<path class="st0" d="M16,24L16,24c3.3,0,6-2.7,6-6v0h0C18.7,18,16,20.7,16,24L16,24z"/>
</svg>