<?xml version="1.0" encoding="iso-8859-1"?>
<!-- Uploaded to: SVG Repo, www.svgrepo.com, Generator: SVG Repo Mixer Tools -->
<svg fill="#000000" height="800px" width="800px" version="1.1" id="Layer_1" xmlns="http://www.w3.org/2000/svg" xmlns:xlink="http://www.w3.org/1999/xlink" 
	 viewBox="0 0 512 512" xml:space="preserve">
<g transform="translate(1 1)">
	<g>
		<g>
			<path d="M237.933,365.827c0-5.12-3.413-8.533-8.533-8.533h-42.667c-5.12,0-8.533,3.413-8.533,8.533s3.413,8.533,8.533,8.533
				H229.4C234.52,374.36,237.933,370.947,237.933,365.827z"/>
			<path d="M169.667,417.027H101.4c-5.12,0-8.533,3.413-8.533,8.533s3.413,8.533,8.533,8.533h68.267c5.12,0,8.533-3.413,8.533-8.533
				S174.787,417.027,169.667,417.027z"/>
			<path d="M255,408.493h93.867c5.12,0,8.533-3.413,8.533-8.533c0-5.12-3.413-8.533-8.533-8.533H255
				c-5.12,0-8.533,3.413-8.533,8.533C246.467,405.08,249.88,408.493,255,408.493z"/>
			<path d="M434.2,434.093h-93.867c-5.12,0-8.533,3.413-8.533,8.533s3.413,8.533,8.533,8.533H434.2c5.12,0,8.533-3.413,8.533-8.533
				S439.32,434.093,434.2,434.093z"/>
			<path d="M263.533,459.693H203.8c-5.12,0-8.533,3.413-8.533,8.533s3.413,8.533,8.533,8.533h59.733c5.12,0,8.533-3.413,8.533-8.533
				S268.653,459.693,263.533,459.693z"/>
			<path d="M502.467,306.093H434.2c-24.725,0-49.436,7.016-70.36,19.742c-5.597-70.808,9.426-154.036,22.563-187.78
				c18.207,6.775,33.257,10.172,46.944,10.172c9.387,0,18.773-2.56,26.453-5.12c20.48-8.533,35.84-28.16,50.347-63.147
				c0.853-2.56,0.853-5.12,0-6.827c-0.853-1.707-2.56-3.413-4.267-4.267c-46.401-19.631-77.455-18.103-101.84,7.746
				c0.132-34.042-21.785-56.873-68.827-76.866c-2.56-0.853-5.12-0.853-6.827,0s-3.413,2.56-4.267,4.267
				c-27.029,63.887-13.954,98.684,47.505,127.032c-14.708,37.464-29.088,121.374-24.337,192.634
				c-20.115-11.359-43.396-17.586-66.688-17.586h-85.333c-24.725,0-49.436,7.016-70.36,19.742
				c-5.597-70.808,9.426-154.036,22.563-187.78c18.207,6.775,33.258,10.172,46.944,10.172c9.387,0,18.773-2.56,26.453-5.12
				c20.48-8.533,35.84-28.16,50.347-63.147c0.853-2.56,0.853-5.12,0-6.827c-0.853-1.707-2.56-3.413-4.267-4.267
				c-46.401-19.631-77.455-18.103-101.84,7.746c0.132-34.042-21.785-56.873-68.827-76.866c-2.56-0.853-5.12-0.853-6.827,0
				s-3.413,2.56-4.267,4.267C58.158,67.9,71.232,102.697,132.692,131.045c-14.708,37.464-29.088,121.374-24.337,192.634
				c-20.115-11.359-43.396-17.586-66.688-17.586H7.533c-5.12,0-8.533,3.413-8.533,8.533V502.36c0,5.12,3.413,8.533,8.533,8.533
				h494.933c5.12,0,8.533-3.413,8.533-8.533V314.627C511,309.507,507.587,306.093,502.467,306.093z M491.373,79.96
				c-11.947,26.453-23.893,40.96-38.4,46.933c-14.507,6.827-33.28,5.12-58.88-4.267C417.133,72.28,441.88,62.04,491.373,79.96z
				 M336.067,18.52c50.347,23.04,60.587,47.787,41.813,96.427C328.387,92.76,317.293,68.013,336.067,18.52z M252.44,79.96
				c-11.947,26.453-23.893,40.96-38.4,46.933c-14.507,6.827-33.28,5.12-58.88-4.267C178.2,72.28,202.947,62.04,252.44,79.96z
				 M97.133,18.52C147.48,41.56,157.72,66.307,139.8,115.8C89.453,92.76,79.213,68.013,97.133,18.52z M16.067,493.827v-34.133H50.2
				c5.12,0,8.533-3.413,8.533-8.533c0-5.12-3.413-8.533-8.533-8.533H16.067v-59.733h76.8c5.12,0,8.533-3.413,8.533-8.533
				s-3.413-8.533-8.533-8.533h-76.8V323.16h25.6c25.6,0,51.2,8.533,71.68,23.893c3.413,2.56,6.827,2.56,10.24,0
				c20.48-15.36,46.08-23.893,71.68-23.893H280.6c25.6,0,51.2,8.533,71.68,23.893c3.413,2.56,6.827,2.56,10.24,0
				c20.48-15.36,46.08-23.893,71.68-23.893h59.733v68.267H434.2c-5.12,0-8.533,3.413-8.533,8.533c0,5.12,3.413,8.533,8.533,8.533
				h59.733v85.333H16.067z"/>
		</g>
	</g>
</g>
</svg>