<?xml version="1.0" encoding="iso-8859-1"?>
<!-- Uploaded to: SVG Repo, www.svgrepo.com, Generator: SVG Repo Mixer Tools -->
<svg fill="#000000" height="800px" width="800px" version="1.1" id="Layer_1" xmlns="http://www.w3.org/2000/svg" xmlns:xlink="http://www.w3.org/1999/xlink" 
	 viewBox="0 0 512 512" xml:space="preserve">
<g transform="translate(1 1)">
	<g>
		<path d="M506.054,313.027c-13.884-18.513-27.773-20.287-58.044-5.962c-1.253-4.939-2.922-11.312-5.102-19.638l-0.853-2.56
			l-1.707-1.707c-10.24-9.387-23.04-19.627-31.573-19.627H338.8c-3.413,0-11.947-6.827-16.213-11.093
			c-4.909-4.418-9.817-8.546-14.564-11.262c4.238-15.517,7.054-41.025,6.514-70.093c2.114-4.72,4.229-10.584,6.343-17.633
			c6.409-16.823,13.57-38.911,23.602-52.142c50.19-2.066,89.892-43.057,89.892-93.778V-1h-8.533
			c-51.043,0-92.234,40.207-93.814,90.848c-8.459,10.996-14.998,26.02-20.416,40.548c-2.66-20.874-7.251-42.042-14.351-61.541
			c5.203-18.533,15.235-39.282,23.621-47.669c3.413-3.413,3.413-8.533,0-11.947c-3.413-3.413-8.533-3.413-11.947,0
			c-7.179,7.777-15.194,21.847-21.404,37.208c-5.079-9.849-10.993-18.951-17.849-26.968c-2.56-3.413-8.533-4.267-11.947-0.853
			c-3.413,2.56-4.267,8.533-0.853,11.947c12.259,14.068,21.155,32.065,27.463,51.649c-8.267-6.912-17.738-13.421-27.463-16.662
			c-4.267-0.853-9.387,0.853-10.24,5.973s1.707,9.387,5.973,11.093c13.653,4.267,29.013,20.48,37.547,29.013l1.707,2.56
			c0.163,0.163,0.327,0.312,0.491,0.459c4.156,22.818,5.642,46.042,5.5,66.506c-2.575-3.004-5.42-5.872-8.548-8.62
			c-1.23-40.132-32.625-72.928-73.39-74.559h-8.533v8.533c-0.853,20.48,6.827,40.107,20.48,55.467
			c13.283,14.943,31.417,23.403,51.248,24.638c7.622,7.648,13.295,16.028,17.018,25.708c0.03,0.119,0.07,0.235,0.106,0.352
			c-1.114,11.009-2.7,19.932-4.438,25.811c-15.77,2.224-50.545,10.626-73.321,16.504c-8.533-1.707-57.173-15.36-90.453-25.6
			l-6.827-1.707L93.04,283.16l8.521,2.84c-16.655,5.537-32.136,14.289-42.655,21.009v-17.876H-0.826V511h59.733v-25.6H169.84
			c17.067,0,34.987-1.707,52.053-2.56l110.933-17.067c4.267,0,8.533-0.853,11.947-1.707c10.24-1.707,19.627-6.827,28.16-14.507
			l128.853-102.4C512.027,338.627,513.734,323.267,506.054,313.027z M416.454,16.92c-3.413,34.987-31.573,63.147-67.413,67.413
			C353.307,49.347,381.467,21.187,416.454,16.92z M239.814,150.04c-8.533-9.387-13.653-20.48-15.36-33.28
			c25.6,5.12,44.373,26.453,47.787,51.2C259.44,165.4,248.347,159.427,239.814,150.04z M128.027,247.32
			c85.333,25.6,89.6,24.747,92.16,23.893C260.294,261.827,291.014,255,296.134,255c2.56,0.853,10.24,6.827,14.507,10.24
			c9.387,7.68,18.773,15.36,27.307,15.36h40.96h28.16c2.56,0.853,11.093,6.827,18.773,13.653c0.803,4.82,3.875,14.932,5.656,21.797
			L364.4,357.4c-10.24,5.973-33.28,7.68-54.613,7.68c4.267-7.68,2.56-17.067-5.12-28.16c-13.653-19.627-36.693-31.573-61.44-31.573
			h-33.28c-15.674,0-30.696-3.918-43.351-11.752c-1.922-1.362-3.608-2.488-5.289-3.608c-1.608-1.206-3.267-2.265-4.964-3.216
			c-0.687-0.416-1.321-0.779-1.863-1.05c-0.853-0.853-1.707-0.853-3.413-1.707c-9.387-5.12-20.48-9.387-32.427-12.8L128.027,247.32z
			 M41.84,493.933h-25.6V306.2h25.6V319v166.4V493.933z M491.547,335.213L361.84,435.907l-0.853,0.853
			c-5.12,5.973-11.947,9.387-18.773,10.24h-0.853c-3.413,0.853-5.973,0.853-9.387,0.853l-112.64,17.067
			c-16.213,2.56-33.28,3.413-49.493,3.413H58.907v-140.8c17.802-12.61,56.235-34.885,81.674-28.166
			c3.117,1.365,5.143,2.343,5.366,2.566c0,0,3.388,1.936,7.793,4.44c4.083,2.777,8.456,5.239,13.041,7.371
			c3.08,1.725,5.541,3.083,6.473,3.549l1.707,0.853c4.267,1.707,8.533,2.56,11.947,3.413c0,0,10.24,1.707,14.507,1.707
			c2.56,0,4.267,0,6.827,0h1.707h33.28c19.627,0,37.547,8.533,47.787,26.453c0.592,0.592,2.822,3.642,4.136,5.459
			c0.555,2.174,0.563,3.917,0.131,4.781c-1.821,3.035-7.537,4.771-14.675,5.83c-0.747,0.09-1.295,0.143-1.539,0.143
			c-0.853,0-1.707,0-2.56,0c-2.56,0-4.267,0-5.973,0v0.853c-3.123,0-6.187,0-8.533,0h-73.387c-26.453,0-42.667,12.8-42.667,34.133
			c0,5.12,3.413,8.533,8.533,8.533s8.533-3.413,8.533-8.533c0-4.267,0-17.067,25.6-17.067h72.533v0c2.56,0,5.973,0,11.093,0
			c0.853,0,2.56,0,4.267,0c40.107,0.853,77.653,0,97.28-10.24l73.387-45.227c35.84-17.92,39.253-13.653,46.08-3.413
			C494.96,327.533,494.96,332.653,491.547,335.213z"/>
	</g>
</g>
</svg>