<!-- <svg viewBox="0 0 250 250" xmlns="http://www.w3.org/2000/svg"  width="100%" height="100%" >

    <path fill="#6BE5F2" fill-opacity="0.5" d="M50.1,-70.7C62.1,-60.4,66.8,-41.8,70.9,-24.2C75,-6.6,78.6,10,73,22.6C67.3,35.1,52.6,43.6,38.9,47.4C25.2,51.2,12.6,50.3,-3.1,54.6C-18.9,59,-37.7,68.4,-52.6,65C-67.4,61.6,-78.3,45.3,-83.4,27.5C-88.6,9.8,-88,-9.3,-78.6,-21.6C-69.2,-33.9,-50.9,-39.3,-36.3,-48.8C-21.7,-58.2,-10.8,-71.7,4.1,-77.4C19.1,-83.1,38.2,-81,50.1,-70.7Z" transform="translate(130 100) scale(1.1)" />

    <path fill="#3DF27C" fill-opacity="0.5" d="M48.6,-39.2C51.5,-35.1,34.5,-15.5,26.9,1.4C19.2,18.4,21,32.8,13.1,42.5C5.1,52.3,-12.5,57.4,-32.2,53.1C-51.9,48.9,-73.8,35.4,-81.5,14.8C-89.2,-5.7,-82.7,-33.2,-66.8,-40.4C-50.8,-47.5,-25.4,-34.2,-1.3,-33.1C22.8,-32.1,45.7,-43.4,48.6,-39.2Z" transform="translate(100 100) scale(1.1)" />
    <path fill="none" stroke="#FF0066" stroke-opacity="0.5" stroke-width="0.5" d="M49.5,-51.8C65.5,-45.5,80.9,-31.2,78.9,-17.7C76.8,-4.1,57.2,8.8,44.8,21.6C32.3,34.3,27,46.9,17.3,52.7C7.5,58.5,-6.6,57.7,-19.3,53C-32,48.4,-43.4,40,-47.1,29.3C-50.9,18.5,-47,5.5,-48.2,-12.1C-49.4,-29.7,-55.8,-51.9,-48.6,-59.8C-41.4,-67.6,-20.7,-61.3,-2,-58.9C16.7,-56.5,33.4,-58.1,49.5,-51.8Z" transform="translate(110 130) scale(0.8)" />

</svg> -->


<svg viewBox="0 0 250 250" xmlns="http://www.w3.org/2000/svg" width="100%" height="100%">

    <path fill="#6BE5F2" fill-opacity="0.5" d="M50.1,-70.7C62.1,-60.4,66.8,-41.8,70.9,-24.2C75,-6.6,78.6,10,73,22.6C67.3,35.1,52.6,43.6,38.9,47.4C25.2,51.2,12.6,50.3,-3.1,54.6C-18.9,59,-37.7,68.4,-52.6,65C-67.4,61.6,-78.3,45.3,-83.4,27.5C-88.6,9.8,-88,-9.3,-78.6,-21.6C-69.2,-33.9,-50.9,-39.3,-36.3,-48.8C-21.7,-58.2,-10.8,-71.7,4.1,-77.4C19.1,-83.1,38.2,-81,50.1,-70.7Z" transform="translate(130 100) scale(1.1)">
        <animateTransform attributeName="transform" attributeType="XML" type="rotate" dur="1s" from="90" to="0" repeatCount="1" additive="sum" transform-origin="100% 100%" />
    </path>
    <path fill="#3DF27C" fill-opacity="0.5" d="M48.6,-39.2C51.5,-35.1,34.5,-15.5,26.9,1.4C19.2,18.4,21,32.8,13.1,42.5C5.1,52.3,-12.5,57.4,-32.2,53.1C-51.9,48.9,-73.8,35.4,-81.5,14.8C-89.2,-5.7,-82.7,-33.2,-66.8,-40.4C-50.8,-47.5,-25.4,-34.2,-1.3,-33.1C22.8,-32.1,45.7,-43.4,48.6,-39.2Z" transform="translate(100 100) scale(1.1)">
        <animateTransform attributeName="transform" attributeType="XML" type="rotate" dur="1s" from="270" to="360" repeatCount="1" additive="sum" transform-origin="100% 100%" />
    </path>
    <path fill="none" stroke="#FF0066" stroke-opacity="0.5" stroke-width="0.5" d="M49.5,-51.8C65.5,-45.5,80.9,-31.2,78.9,-17.7C76.8,-4.1,57.2,8.8,44.8,21.6C32.3,34.3,27,46.9,17.3,52.7C7.5,58.5,-6.6,57.7,-19.3,53C-32,48.4,-43.4,40,-47.1,29.3C-50.9,18.5,-47,5.5,-48.2,-12.1C-49.4,-29.7,-55.8,-51.9,-48.6,-59.8C-41.4,-67.6,-20.7,-61.3,-2,-58.9C16.7,-56.5,33.4,-58.1,49.5,-51.8Z" transform="translate(110 130) scale(0.8)">
      </path>

</svg>