<svg width="41" height="41" viewBox="0 0 41 41" fill="none" xmlns="http://www.w3.org/2000/svg">
<g clip-path="url(#clip0_169_15)">
<path d="M34.3201 0.5H5.96036C2.72049 0.5 0.0847168 3.12848 0.0847168 6.35938V34.6406C0.0847168 37.8715 2.72049 40.5 5.96036 40.5H34.3201C37.56 40.5 40.1958 37.8715 40.1958 34.6406V6.35938C40.1958 3.12848 37.56 0.5 34.3201 0.5ZM37.8455 34.6406C37.8455 36.5791 36.264 38.1562 34.3201 38.1562H5.96036C4.0165 38.1562 2.43497 36.5791 2.43497 34.6406V6.35938C2.43497 4.4209 4.0165 2.84375 5.96036 2.84375H34.3201C36.264 2.84375 37.8455 4.4209 37.8455 6.35938V34.6406Z" fill="#070707" stroke="#070707" stroke-width="0.5"/>
<path d="M18.9651 16.9844C18.9651 14.3995 16.8566 12.2969 14.2646 12.2969H7.21387V28.7031H14.2646C16.8566 28.7031 18.9651 26.6005 18.9651 24.0156C18.9651 22.6167 18.3467 21.3597 17.3686 20.5C18.3467 19.6403 18.9651 18.3833 18.9651 16.9844ZM16.6149 24.0156C16.6149 25.308 15.5606 26.3594 14.2646 26.3594H9.56412V21.6719H14.2646C15.5606 21.6719 16.6149 22.7232 16.6149 24.0156ZM9.56412 19.3281V14.6406H14.2646C15.5606 14.6406 16.6149 15.692 16.6149 16.9844C16.6149 18.2768 15.5606 19.3281 14.2646 19.3281H9.56412Z" fill="#070707" stroke="#070707" stroke-width="0.5"/>
<path d="M27.1911 16.9844C23.9512 16.9844 21.3154 19.6129 21.3154 22.8438C21.3154 26.0746 23.9512 28.7031 27.1911 28.7031C29.2821 28.7031 31.2321 27.581 32.2799 25.7744L30.2455 24.6006C29.6163 25.6855 28.4458 26.3594 27.1911 26.3594C25.6588 26.3594 24.3521 25.3798 23.867 24.0156H33.0667V22.8438C33.0667 19.6129 30.4309 16.9844 27.1911 16.9844ZM23.867 21.6719C24.3521 20.3077 25.6588 19.3281 27.1911 19.3281C28.7233 19.3281 30.03 20.3077 30.5151 21.6719H23.867Z" fill="#070707" stroke="#070707" stroke-width="0.5"/>
<path d="M22.4905 12.2969H31.8915V14.6406H22.4905V12.2969Z" fill="#070707" stroke="#070707" stroke-width="0.5"/>
</g>
<defs>
<clipPath id="clip0_169_15">
<rect width="40.111" height="40" fill="white" transform="translate(0.0847168 0.5)"/>
</clipPath>
</defs>
</svg>
