<svg width="40" height="41" viewBox="0 0 40 41" fill="none" xmlns="http://www.w3.org/2000/svg">
<path d="M12.1663 0.792813H12.6663V0.783203H28.571C34.5356 0.783203 39.4181 5.76789 39.4181 11.8952V28.6692C39.4181 34.7968 34.5353 39.7812 28.5804 39.7812H12.1663C6.20035 39.7812 1.30981 34.8048 1.30981 28.6884V11.9048C1.30981 5.77805 6.20115 0.792813 12.1663 0.792813ZM3.31814 11.9135V11.9144V28.6981C3.31814 33.6842 7.2457 37.7148 12.1663 37.7148H28.5804C33.4836 37.7148 37.4097 33.6827 37.4097 28.6788V11.9048C37.4097 6.9006 33.4833 2.86885 28.571 2.86885H12.1663C7.25349 2.86885 3.32807 6.90093 3.31814 11.9135ZM31.4025 7.9829C31.4025 7.39297 31.8565 6.94489 32.4067 6.94489C32.9568 6.94489 33.4108 7.39297 33.4108 7.9829C33.4108 8.57283 32.9568 9.02092 32.4067 9.02092C31.8565 9.02092 31.4025 8.57283 31.4025 7.9829ZM10.3442 20.287C10.3442 14.6313 14.8689 10.0209 20.3733 10.0209C25.8778 10.0209 30.4025 14.6313 30.4025 20.287C30.4025 25.9428 25.8778 30.5532 20.3733 30.5532C14.8689 30.5532 10.3442 25.9428 10.3442 20.287ZM28.3942 20.287C28.3942 15.7534 24.834 12.097 20.3733 12.097C15.9127 12.097 12.3525 15.7534 12.3525 20.287C12.3525 24.8206 15.9127 28.4771 20.3733 28.4771C24.834 28.4771 28.3942 24.8206 28.3942 20.287Z" fill="#070707" stroke="#070707"/>
</svg>
