<svg width="40" height="41" viewBox="0 0 40 41" fill="none" xmlns="http://www.w3.org/2000/svg">
<path d="M30.6636 7.40189L30.9693 7.01765L30.5907 6.70501C27.6753 4.29787 23.9726 2.85998 19.9218 2.85998C18.5026 2.85998 17.1267 3.05879 15.8239 3.3845L15.0968 3.56629L15.5439 4.16785C16.9345 6.03872 18.9322 8.86428 21.3246 13.2896L21.5312 13.6718L21.9385 13.5205C26.4658 11.8395 29.1786 9.26804 30.6636 7.40189ZM13.3633 4.64412L13.1183 4.32133L12.7517 4.49422C8.2556 6.61505 4.84923 10.6659 3.50458 15.6128L3.3385 16.2238L3.97134 16.2437C6.44724 16.3217 12.3654 16.205 18.9231 14.4482L19.5416 14.2825L19.2309 13.7226C16.6875 9.13894 14.5485 6.2054 13.3633 4.64412ZM32.8171 8.9031L32.4294 8.44246L32.0478 8.90819C30.3918 10.9294 27.5165 13.5547 22.9642 15.3361L22.4579 15.5342L22.6976 16.0221C23.6791 18.0203 24.6313 20.1496 25.4989 22.449L25.6418 22.8279L26.0421 22.7668C29.3354 22.2639 32.3796 22.2639 34.679 22.444C35.2381 22.4904 35.5988 22.5425 36.0187 22.6031C36.1072 22.6159 36.1982 22.6291 36.2943 22.6426L36.8064 22.7149L36.8614 22.2007C36.9288 21.5701 36.9676 20.9368 36.9676 20.2822C36.9676 15.9287 35.3902 11.9602 32.8171 8.9031ZM20.6701 16.5304L20.485 16.1592L20.086 16.2726C12.3727 18.4639 5.57803 18.397 3.46198 18.3116L2.98015 18.2921L2.94327 18.7729L2.94069 18.8066C2.90413 19.2831 2.8666 19.7721 2.8666 20.2918C2.8666 25.5256 5.13097 30.1976 8.70191 33.3945L9.07471 33.7283L9.40819 33.3552C10.3033 32.3539 11.5039 31.0786 12.9635 29.7474L12.9655 29.7456C15.7118 27.2139 19.2452 24.5351 23.0942 23.3663L23.6111 23.2093L23.4147 22.7061C22.5532 20.4984 21.6256 18.4462 20.6701 16.5304ZM30.1596 24.4266L30.1542 24.4268C29.1431 24.4756 28.0668 24.5731 26.9723 24.7191L26.3775 24.7984L26.5628 25.3692C27.4866 28.213 28.2507 31.2255 28.7443 34.3593L28.8686 35.1482L29.5239 34.6919C32.71 32.4733 35.12 29.1763 36.2427 25.3059L36.408 24.7363L35.8186 24.6698C34.3586 24.5049 32.5073 24.3387 30.1596 24.4266ZM24.5036 25.6119L24.35 25.1585L23.8904 25.2922C20.509 26.2761 16.9721 28.8273 14.2917 31.2876C12.9965 32.4662 11.9505 33.585 11.111 34.5015L10.6983 34.952L11.2216 35.2674C13.7671 36.8018 16.723 37.7045 19.9124 37.7045C22.306 37.7045 24.5638 37.1988 26.6257 36.3078L26.9737 36.1573L26.9228 35.7816C26.4385 32.2078 25.5843 28.8017 24.5036 25.6119ZM0.867676 20.2822C0.867676 9.52901 9.43492 0.783203 19.9218 0.783203C30.4087 0.783203 38.9759 9.52901 38.9759 20.2822C38.9759 31.0354 30.4087 39.7812 19.9218 39.7812C9.43492 39.7812 0.867676 31.0354 0.867676 20.2822Z" fill="#070707" stroke="#070707"/>
</svg>
